<?xml version="1.0" encoding="utf-8"?>
<!-- Generator: Adobe Illustrator 23.0.1, SVG Export Plug-In . SVG Version: 6.00 Build 0)  -->
<svg version="1.1" id="Ebene_1" xmlns="http://www.w3.org/2000/svg" xmlns:xlink="http://www.w3.org/1999/xlink" x="0px" y="0px"
	 width="107px" height="107px" viewBox="0 0 107 107" style="enable-background:new 0 0 107 107;" xml:space="preserve">
<style type="text/css">
	.st0{fill:none;stroke:#FFFFFF;stroke-width:28;stroke-miterlimit:10;}
	.st1{fill:#FFFFFF;}
	.st2{fill:none;stroke:#FFFFFF;stroke-width:3;stroke-miterlimit:10;}
	.st3{fill:#FFFFFF;stroke:#FFFFFF;stroke-width:3;stroke-miterlimit:10;}
</style>
<circle cx="-224" cy="-188" r="512"/>
<circle class="st0" cx="-224" cy="-188" r="427"/>
<g>
	<path class="st1" d="M-398.1-573c58.2,97,116.4,193.8,174.7,291.1c58.3-97.2,116.5-194,174.7-291.1c2.6,1.2,5.1,2.2,7.5,3.4
		c10.4,5.4,20.7,10.9,31.1,16.3c1.7,0.9,2.2,1.9,2.2,3.8c-0.1,48.9,0,97.8,0,146.7c0,136.1,0,272.2,0,408.2c0,1.1,0,2.1,0,3.4
		c-19,0-37.9,0-57.1,0c0-148.1,0-296.1,0-444.2c-0.2,0-0.3-0.1-0.5-0.1c-52.6,87.6-105.1,175.3-157.9,263.3
		c-52.8-88.1-105.4-175.7-158.3-263.9c0,148.7,0,296.7,0,444.9c-19.1,0-38,0-57.3,0c0-0.9,0-1.7,0-2.5c0-185.3,0-370.6,0-555.8
		c0-1.7,0.4-2.8,2.1-3.6c12.4-6.3,24.7-12.7,37-19C-399.4-572.5-398.8-572.7-398.1-573z"/>
	<path class="st1" d="M-179.7-208.9c21.6,36,43.1,71.8,64.8,108.1c10.5-17.5,20.7-34.6,31-51.7c0.2,0,0.3,0.1,0.5,0.1
		c0,0.8,0,1.6,0,2.4c0,34.5,0,69,0,103.6c0,1.9-0.4,3.5-1.4,5.2C-94.4-25.3-104-9.4-113.5,6.4c-0.4,0.6-0.8,1.3-1.3,2.1
		c-2.7-4.5-5.4-8.9-8-13.2c-29.5-49.2-59.1-98.4-88.6-147.6c-0.8-1.3-1.1-2.2-0.2-3.7c10.3-17,20.5-34.1,30.8-51.2
		C-180.6-207.7-180.2-208.2-179.7-208.9z"/>
	<path class="st1" d="M-332.1,8.6c-8.1-13.5-16-26.7-24-40c-0.6-0.9-1-1.9-1.7-2.8c-4.7-6-5.8-12.7-5.7-20.3
		c0.3-31.8,0.1-63.6,0.1-95.4c0-0.8,0-1.6,0.5-2.6c10.2,17.1,20.4,34.2,30.9,51.7c21.7-36.2,43.2-72,64.8-108.1
		c0.6,0.9,1,1.5,1.4,2.1c10.1,16.9,20.2,33.7,30.4,50.6c0.9,1.5,0.8,2.5-0.1,3.9C-267.2-99.4-299-46.4-330.8,6.5
		C-331.1,7.1-331.5,7.7-332.1,8.6z"/>
	<path class="st1" d="M-548.1-460.9c3.4,5.7,6.6,10.9,9.7,16.1c26.6,44.4,53.3,88.7,79.9,133.1c0.6,1,1,2.3,1,3.4
		c0.1,35.3,0,70.6,0,105.9c0,0.4,0,0.9,0,1.9c-0.7-1-1.1-1.5-1.4-2c-37.3-62.2-74.6-124.3-112-186.5c-4.2-6.9-8.3-13.9-12.5-20.8
		c-0.7-1.1-0.8-2,0-3.1c10.5-16.3,22-31.9,34.5-46.7C-548.6-459.9-548.4-460.3-548.1-460.9z"/>
	<path class="st1" d="M10.6-201.1c0-0.7,0-1.5,0-2.2c0-34.8,0-69.6,0-104.5c0-1.3,0.4-2.8,1-3.9c29.3-48.9,58.6-97.7,88-146.6
		c0.4-0.7,0.9-1.4,1.5-2.4c3.2,3.9,6.4,7.5,9.3,11.4c8.7,11.9,17.2,23.9,25.8,35.9c0.9,1.3,1.1,2.3,0.2,3.7
		C94.8-340.5,53.3-271.4,11.8-202.2c-0.2,0.4-0.5,0.8-0.8,1.2C10.9-201,10.8-201.1,10.6-201.1z"/>
</g>
<g>
	<g>
		<g id="Kalligrafie_6_">
			<path class="st1" d="M-275.9,227.8c-2.5,0-4.9-0.3-7.3-0.8c-13.1-3-22.5-14.4-23.3-28.3c-0.8-14.4,4.9-25.9,9.2-33.4
				c6.6-11.3,15.7-21.3,28.7-31.5c8.6-6.7,17.8-12.9,27.9-18.6c-2.6-1.2-5-2.9-7-4.9c-2.2,1.3-4.4,2.6-6.4,3.8
				c-3.6,2.1-7.2,2.8-9.4,3.2l-0.1,0c-1.9,0.4-3.8,0.6-5.6,0.6c-7.2,0-13.6-2.8-18.2-7.4c-2.1,1.3-4.4,2.5-6.8,3.8
				c-4.5,2.4-9.2,3.7-14.1,3.7c-1.6,0-3.2-0.1-4.8-0.4c-5.5-1-10.3-3.4-13.9-6.8c-3.5,2.1-7.3,4-11.5,5.4c-3,1-6,1.6-9,1.8
				c-0.4,0-0.8,0-1.2,0c-5.8,0-11-1.8-15.3-4.9c-3.3,1.8-7,3.3-11.3,4.3c-2.4,0.5-4.8,0.8-7.2,0.8c-8.7,0-16.3-3.8-21.3-9.9
				c-3.6,2.3-7.5,4.5-11.7,6.4c-5.1,2.2-10.4,3.3-15.7,3.3c-2.9,0-5.9-0.3-8.8-1c-14.9-3.5-24.6-15.5-24.9-30.8
				c-0.2-10.5,3.1-20.6,9.4-29.5c3.3-4.7,6.9-9,10.3-13.3c0.1-0.1,0.2-0.3,0.3-0.4c-2.7,0.3-5.4,0.6-8,0.8
				c-7.9,10.1-18,22.4-29.4,33.7l1.6,6.1c1.1,4.4,1.9,12.8-5.7,20.3c-4.8,4.8-10.7,8.6-17.8,11.6c-7.2,3.1-14.6,4.6-22,4.6
				c-7.7,0-15.4-1.7-22.7-5c-0.2-0.1-0.2-0.1-0.2-0.1c-0.1,0-0.6,0-1.7,0.3c-17.1,4.4-32.4,6.5-46.8,6.5c-1.5,0-2.9,0-4.4-0.1
				c-4.6-0.1-8.8-0.9-12.5-1.6c-0.8-0.2-1.7-0.3-2.5-0.5c-3.7-0.6-6.6-2.1-8.9-3.5c-5.6-3.3-9.4-8.2-10.7-14
				c-1.3-5.8-0.1-11.9,3.5-17.2c6.2-9.2,14.9-13.6,21-16.1c7.1-2.9,14.6-4.4,22.2-4.4c7.7,0,15.6,1.5,23.6,4.6
				c6.2,2.4,12.1,5.1,17.7,7.7c0.2,0.1,0.5,0.2,0.7,0.3c7.5-2.5,14.5-6.8,21.3-13.3c8.1-7.7,15.2-16.5,22.6-25.8
				c-2.6-1.4-4.6-3.2-6.1-4.7c-8.1-8-8.7-20.6-1.5-29.1c1.6-1.9,3.4-3.6,5.4-5.2c-17.8-0.5-32-11.5-38.2-29.7
				c-6-17.8-2.8-35.9,9.2-52.2c13.2-17.9,31.6-29,54.7-33.2c6.7-1.2,13.6-1.8,21-1.8c7.6,0,15.7,0.6,24.8,1.9
				c15.9,2.3,31.3,7,44.3,11.3c7.5-6,14.7-10.1,22.5-12.6c2.6-0.8,6.1-1.8,10.2-1.8c2.5,0,4.9,0.4,7.2,1c5.5,1.6,10,5.3,12.5,10.2
				c2.4,4.6,2.9,10,1.5,15.1c5.5-5,11.1-9.5,16.7-13.7c4.3-3.2,8.7-5.7,12.4-7.7c4.6-2.5,9.7-3.8,15.1-3.8c2.4,0,4.8,0.2,7.2,0.7
				c6.1,1.2,11.4,5,14.7,10.4c3.3,5.3,4.2,11.8,2.5,17.7c-1.4,5-5,9.5-9.7,12.2c-2.6,1.5-5.6,2.3-8.6,2.3c-3.9,0-7.8-1.4-10.8-3.9
				c-3.6,2.6-7.1,5.8-10.6,9.1c-9.5,8.9-17.6,19.1-24.4,28.5c2.7-1.2,5.6-2.1,8.6-2.9c5.2-1.3,10.6-2,16.2-2c3.3,0,6.6,0.2,10,0.7
				c10.4,1.5,20.8,3.2,30.9,4.9c4.2,0.7,8.3,1.4,12.5,2.1c0.2,0,0.5,0.1,0.7,0.1l1.8-2.5c9.2-12.5,18.8-25.4,28.3-38
				c11.7-15.5,24.3-32,38.4-47c8.2-8.7,19.5-19.9,33.4-28.5c9.6-5.9,18.3-9.3,27.3-10.7l1.7-0.7h15.2l2.1,0.6
				c0.7,0.2,1.5,0.4,2.2,0.6c2.3,0.6,5.2,1.3,8.2,2.5c10.1,4.1,23,13.5,27.7,34.5c1,4.7,1.6,9.5,1.6,14.5c2.2,0.2,4.5,0.5,6.9,1.1
				c16.8,3.8,28,16.9,29.4,34.2c0.1,1.5,0.2,2.9,0.2,4.3c9.3,2.6,17.1,8.4,22.7,17c1.8,2.7,3.5,5.4,5.1,8.1c1.2,1.9,2.4,3.9,3.6,5.8
				c1.9,2.9,2.8,3.4,2.8,3.4C6.2-39,6.6-39,7-39c1.4,0,3.2-0.3,5.3-1c1.5-0.5,3.4-1.3,5.3-2.2c1.1-0.5,2.1-0.9,3.2-1.4
				c0.4-0.2,0.7-0.3,1.2-0.5l32.4-14.3l-9.5,32.9c-2.3,7.9-7.8,11.9-9.8,13.4C27.8-6.7,19-3.9,9.7-3.9c-13.1,0-25.2-5.6-33.2-15.3
				c-3.1-3.7-5.3-7.5-7.4-10.9l-0.1-0.2c-1.5-2.6-2.9-4.9-4.3-6.6c-0.5,1.2-1.1,2.5-1.7,3.7c-2.1,4.4-5.1,7.3-7.3,9.5
				c-0.3,0.3-0.6,0.6-0.8,0.8c-3.7,3.8-8.2,5.1-9.8,5.6c-2.1,0.6-4.2,0.9-6.3,0.9c-2,0-3.9-0.3-5.8-0.8c1.3,1,2.5,2.1,3.6,3.5
				c3.6,4.6,4.8,10.7,3.4,16.7c-0.8,3.2-2.1,7.9-4.6,12.5c-1.8,3.5-3.8,6.8-5.7,10.2c3,2.9,5.1,6.3,6.4,10
				c5.4-5.7,11.4-10.6,18-14.7c6-3.7,12-5.9,18.2-6.5c0.9-0.1,1.8-0.1,2.7-0.1c5,0,9.7,1.5,13.7,4c3.3-2.6,7.2-3.9,11.6-3.9l0.4,0
				c1.7,0,3.4,0,5.2,0c1.1,0,5.7,0,7,0h15.6c13.5-19.2,27.3-38.7,41.1-58c9.6-13.5,20.3-27.8,32.8-41.2c6.8-7.3,14.3-14.9,24.3-20.6
				c3.6-2.1,7.9-3.6,12.3-4.5c1.5-0.3,3-0.4,4.4-0.4c9.9,0,17.7,6.6,19.8,16.8c1.5,7.1-0.1,13.3-1.6,18c-3.6,11-9.5,20.3-15.4,28.6
				c-10.6,15.1-23.1,30-38.3,45.6c-5.2,5.4-10.5,10.6-15.9,15.6h29.2l-1.6,2.3c2.4-0.9,4.9-1.5,7.4-1.8c1.5-0.2,2.9-0.3,4.3-0.3
				c11.4,0,21,6.7,25.2,17.1l3.8-3.5l11.2,7.9l11.2,7.8l-6,12.3c-0.1,0.1-0.1,0.3-0.2,0.4c-0.5,1.3-1.4,3.4-3.1,5.6
				c-0.8,1.1-1.6,2.2-2.4,3.3c-3.1,4.3-6.4,8.7-10,13c-10.9,13.1-21.3,22.6-32.7,29.8c-7.5,4.8-14.9,7.7-22.5,9.1
				c-2,0.4-4.1,0.5-6.1,0.5c-9.1,0-16.9-3.7-22.3-9.8c-3.7,2.4-7.6,4.7-12,6.6c-4.2,1.8-8.6,2.8-13,3c-0.4,0-0.8,0-1.2,0
				c-4.5,0-8.7-1.1-12.3-3.1c-5.1,14.5-12.8,28.9-24,45.1C5.6,172.9-3.8,183.5-14,192.3c-3.7,3.2-9.5,7.8-17,10.8
				c-4.1,1.7-8.2,2.5-12.3,2.5c-3.1,0-6.2-0.5-9.2-1.4c-9.5-3-15.8-11.1-16.3-21.2c-0.4-7.8,1.7-14.5,3.5-19.5
				c4.7-12.5,11.1-25.2,20.4-39.9c1.9-3,3.8-6,5.7-9c-0.9-0.5-1.7-1.1-2.6-1.7c-3.7,2-7.5,3.5-11.4,4.4c-2.4,0.5-4.7,0.8-7.1,0.8
				c-8,0-15.1-3.2-20-8.5c-1.4,1-2.8,1.9-4.3,2.8c-4.3,2.6-9.6,5.3-16.6,5.3c-1.5,0-2.9-0.1-4.4-0.4c-10.6-1.8-18.5-9.6-20.9-20.1
				c-5.5,4.9-11.2,9.3-17,13.3c-3.5,2.4-7,4.3-10.3,6.2c-1.1,0.6-2.2,1.3-3.3,1.9c-9.8,14.4-20.9,30.6-33.3,45.9
				c-10,12.3-23.6,28.2-40.2,41.9c-7.8,6.4-18.3,14.3-31.5,18.8C-265.3,226.3-270.2,227.8-275.9,227.8z M-233.7,152.5
				c-5.5,3.7-10.9,7.6-16,11.8c-8.5,6.9-14.3,13.5-18.4,20.6c-1.4,2.5-2.4,4.7-3,6.5c0.6-0.3,1.2-0.7,1.9-1.2
				c7.5-5.3,14.1-12.6,20.7-20.1C-243.4,164.3-238.5,158.5-233.7,152.5z M-400.9,29.5c2.8,10.5,1.4,21.3-4,30.8
				c-0.7,1.1-1.3,2.3-2,3.4c1.4-1.7,2.6-3.4,3.8-5.2c6.2-9.5,13.7-20.4,24.3-29.4c6.4-5.4,14.3-11.3,24.8-13.8
				c1.2-0.3,2.5-0.5,3.7-0.6c-2.7-2.6-4.8-5.6-6.3-9.1c-1.2-2.9-2-5.9-2.2-8.9c-1.3,1.6-2.7,3.1-4.1,4.6
				C-373.4,12.7-385.9,22-400.9,29.5z M-148.4,14.4c7.6,0,14.2,3,18.8,8.1c3.4-2.5,7.1-4.7,11.1-6.7l2.4-1.1
				c0.8-2.9,1.8-5.1,2.4-6.3c4.9-10.5,12.4-18.9,22.1-25.1c2.2-1.4,4.6-2.5,7.1-3.2c2-0.6,3.9-0.8,5.9-0.8c1.8,0,3.6,0.2,5.3,0.7
				c-0.9-0.6-1.7-1.4-2.5-2.1c-3.8-3.9-5.9-9.3-5.8-15.1c0.1-8.9,3.6-17,10.7-24.9c2.4-2.7,5-4.9,7.9-6.9c0-2.1-0.1-4.1-0.5-5.9
				c-0.3-1.4-0.4-2-3.4-2.6c-1.7-0.4-3.5-0.6-5.3-0.6c-3,7.5-6.8,14-11.3,19.9c-3.4,4.3-8.2,9.8-15.4,13.3
				c-3.7,1.8-7.8,2.9-11.8,3.2c-0.5,0-1,0.1-1.5,0.1c-5.5,0-10.5-2-14.4-5.4c-2.1,4.2-4.4,8.3-7.1,12.3C-144.6-18.7-160.6-8-181.3-3
				c-3.8,0.9-7.5,1.5-11,2c-0.1,0-0.2,0-0.2,0c-3.4,5.1-6.9,10.3-10.3,15.4c0.2,0,0.3,0,0.5,0l0.4,0c1.7,0,3.3,0,5,0
				c1.1,0,5.8,0,7.1,0h31.3l-1.6,2.2c2-0.7,4-1.3,5.9-1.7C-152.2,14.6-150.3,14.4-148.4,14.4z M-291.4,14.6
				c4.4-6.1,15.8-21.7,15.8-21.7c-5.7-1-11.2-1.9-16.7-2.7l0.1,1.4c0.2,1.4,0.7,4.8-0.5,8.8c-1.6,5.4-4.8,10.2-9.6,14.2H-291.4z
				 M-374.8-66.3c-4.3,5.6-8.3,11-12.2,16.5c-9.9,14.2-19.9,28.6-29.6,42.7c5.7-3.9,10.6-8.3,15-13.4c12.2-14,24.5-28.4,36.5-42.3
				l1.7-2c1.7-2,3.4-3.9,5-5.8C-363.6-68.3-369.1-66.9-374.8-66.3z M-459.2-20.1c-0.4,0.4-0.8,0.7-1.2,1c-3.1,2.6-6.3,4.9-9.6,7
				c1.6-0.1,3.2-0.1,5-0.2C-463.8-14-459.9-19.2-459.2-20.1z M-460.9-81.1c-3.2,0-6.4,0.3-9.4,0.7c-9.2,1.3-16.9,5.4-23.7,12.8
				c-7,7.6-11,14-12.8,20.8c-1,3.7-1.2,6.4-0.6,8.7c0.2,0.6,0.2,1,1.4,1c0.1,0,0.3,0,0.4,0c12.4-1.1,22.6-7.3,32.1-19.4
				C-468.2-63.3-464.1-71.3-460.9-81.1z M-426-76.1c-0.1,0.3-0.1,0.6-0.2,0.8c-2.2,7.8-4.8,15.1-8,21.8c1.3-1.6,2.5-3.3,3.8-4.9
				c4.1-5.3,8.3-10.6,12.4-15.7C-420.7-74.8-423.4-75.5-426-76.1z M-138-116.2c9.8,0,17.7,6.7,19.8,16.7c0.2,0.9,0.4,1.9,0.6,3.1
				c3.9-3.4,8.3-6.4,13.3-9c1.4-0.7,2.7-1.3,4-1.8c0.8-5.7,0.4-10.5-1.2-14.9c-1.8-5.1-5.5-7.7-11.1-7.9c-0.3,0-0.7,0-1,0
				c-6.7,0-13.5,2.4-21.3,7.5c-3.6,2.3-6.9,4.9-10.1,7.6C-142.7-115.9-140.3-116.2-138-116.2z"/>
			<path d="M-108.9-149.6c2.9,0.8,5.8,1.3,8.6,2.4c10.4,4.3,15.8,12.6,18.2,23.2c2,8.7,1.3,17.4-0.6,26c-0.1,0.4-0.1,0.7-0.2,1.3
				c2.4-0.3,4.8-0.8,7.1-0.8c0.2,0,0.3,0,0.5,0c4.6,0.2,9.2,0.2,13.6,1.2c10,2.3,16.2,9.5,17,19.8c0.4,5.7,0.1,11.4,0.1,17
				c3.1,0.3,6.4,0.3,9.6,0.9c6.8,1.3,12,5.1,15.8,10.9c3,4.5,5.7,9.2,8.6,13.8c3.3,5.2,7.3,9.6,13.8,10.6C4.6-23.1,5.8-23,7-23
				c3.5,0,6.9-0.7,10.3-1.8c3.3-1.1,6.5-2.6,9.7-4c0.7-0.3,1.5-0.6,2.5-1.1c-0.7,2.5-2.3,3.8-3.9,4.9c-4.7,3.4-10.3,5.1-16,5.1
				c-7.9,0-15.8-3.3-20.9-9.5c-2.3-2.7-4.1-5.8-6-8.9c-2.7-4.5-5.4-9-9.4-12.5c-4.3-3.7-9.3-5.5-14.8-5.5c-0.9,0-1.7,0-2.6,0.1
				c-1.2,0.1-1.5,0.7-1.9,1.7c-1.8,4.8-3.4,9.7-5.6,14.3c-1.1,2.3-3.3,4.2-5.1,6.1c-0.7,0.7-1.9,1.1-2.9,1.4
				c-0.7,0.2-1.3,0.3-1.9,0.3c-2.5,0-4.2-1.8-4.1-4.7c0.1-5.7,2.9-10.3,6.6-14.5c2.8-3.1,6.1-5.4,10.1-6.8c0.5-0.2,1.2-0.7,1.2-1.2
				c0.8-6.3,1.3-12.6-0.1-18.8c-1.8-8.5-7.5-13.2-15.8-14.9c-3.2-0.7-6.3-1-9.5-1c-3.1,0-6.2,0.3-9.3,0.8c-1.4,0.2-1.7,0.9-2.1,2
				C-86.9-83-90.6-75.1-96-68.1c-2.8,3.5-5.8,6.8-9.9,8.9c-1.8,0.9-3.8,1.4-5.8,1.6c-0.1,0-0.3,0-0.4,0c-3.2,0-5.5-2.4-5.9-5.6
				c-0.4-3.3,0.4-6.3,1.8-9.2c4.2-8.5,11-14.5,19.3-18.8c2.9-1.5,6.1-2.5,9.1-3.9c0.6-0.3,1.5-0.8,1.6-1.3
				c2.6-10.4,3.4-20.8-0.2-31.1c-4-11.4-13.5-18.2-25.6-18.6c-0.5,0-1,0-1.5,0c-11.1,0-20.9,4.1-30,10.1
				c-12.2,8-22.3,18.3-31.7,29.3c-12.1,14-22.3,29.4-32.7,44.6c-9.4,13.6-18.7,27.2-28.1,40.8c-0.4,0.5-0.7,1-1.1,1.7
				c6.9,1,13.8,1.3,20.6,1.3c2.5,0,5.1,0,7.6-0.1c0.6,0,1.3-0.6,1.7-1.2c8.7-11.9,17.4-23.8,26.2-35.7c8.7-11.8,17.5-23.6,27.7-34.2
				c3-3.1,6.5-5.7,9.8-8.5c0.9-0.7,2-1.2,3-1.6c0.9-0.4,1.8-0.6,2.6-0.6c2.1,0,3.5,1.3,4.1,3.9c0.7,3.6,1.3,7.3,1.1,11
				c-0.7,15.2-5.7,29.1-14.2,41.6c-9.2,13.6-22.3,21.4-38,25.1c-5.1,1.2-10.4,1.8-15.6,2.7c-0.7,0.1-1.6,0.7-2.1,1.3
				c-21.5,32-42.9,64-64.4,96c-1.9,2.9-3.4,6-3.8,9.5c-0.4,3.1,1,6.2,4.2,6.2c0.8,0,1.7-0.2,2.8-0.6c0.9-0.4,1.8-0.7,2.6-1.2
				c3.2-2,6.4-3.9,9.5-6.2c6.4-4.6,12.6-9.4,17.6-15.5c3.2-3.9,5.6-8.3,8.5-12.5c6.9-9.8,13.9-19.6,20.8-29.4
				c0.7-0.9,1.4-1.4,2.6-1.4c0,0,0.1,0,0.1,0c1.8,0,3.5,0,5.3,0c2.3,0,4.6,0,7.1,0c-2.5,3.4-4.7,6.5-6.9,9.6
				c-9.9,13.9-19.8,27.7-29.6,41.7c-2.4,3.4-4.7,7-5.6,11.2c-0.7,3.1,0.6,5,3.7,5c0.1,0,0.2,0,0.4,0c1.9-0.1,3.8-0.6,5.5-1.4
				c7.5-3.4,13.7-8.6,19.7-14.1c4.9-4.5,9.4-9.3,12.7-15.2c2.8-5,5.8-9.9,9.2-14.5c5.9-7.7,12.9-14.4,21.5-19.1
				c2.5-1.4,5.3-2.6,8.2-3.1c1-0.2,1.9-0.3,2.8-0.3c6.9,0,9.7,5.7,10,11c0.3,4.7-1,9.2-2.4,13.7c-0.2,0.6-0.4,1.2-0.5,1.9
				c8.7-10.2,17.3-20.7,29.7-26.6c0.1,0.1,0.3,0.3,0.4,0.4c-0.2,0.2-0.3,0.5-0.5,0.7c-8.5,6.8-15.2,15.3-21.3,24.2
				c-9.8,14.1-19.6,28.3-29.4,42.5c-0.2,0.3-0.4,0.6-0.5,0.9c0.1,0.2,0.3,0.3,0.4,0.5c4.6-3,9.3-5.9,13.7-9.2
				c15.8-11.7,29-26.2,40.9-41.8c3.9-5.1,7.5-10.5,11.3-15.7c0.4-0.6,0.8-1.3,0.7-1.7c-1.5-2.2-3.3-4.2-4.3-6.6
				c-1.3-3.1-0.2-6.3,1.1-9.2c3.6-7.7,9.1-13.8,16.2-18.4c0.9-0.6,1.9-1,2.9-1.3c0.5-0.2,1-0.2,1.5-0.2c2.1,0,3.4,1.6,2.8,4
				c-0.7,3-1.7,6.1-3.1,8.8c-3.7,6.9-7.7,13.5-11.5,20.3c-0.4,0.7-0.8,1.3-1.2,2.1c1.3,0.8,2.5,1.6,3.8,2.4c1.8,1.2,3.5,2.3,5.2,3.6
				c3.6,2.7,4.6,6.1,3.5,10.5c-2.2,8.1-6.3,15.1-10.7,22.1c-3.9,6.1-7.9,12.1-11.5,18.3c-1.3,2.2-2,4.8-2.6,7.3
				c-0.6,2.5,0.3,4,2.3,4c0.5,0,1.1-0.1,1.8-0.3c2.5-0.9,5.1-2.1,7.3-3.6c8.5-5.6,15.9-12.4,21.9-20.7c2.6-3.6,4.5-7.8,6.8-11.7
				c6.7-11.2,15.3-20.6,26.4-27.5c3.5-2.2,7.2-3.8,11.4-4.2c0.4,0,0.7-0.1,1.1-0.1c5.7,0,9.4,4.7,9.7,9.5c0.2,3.5-0.2,6.9-0.3,10.3
				c0.1-0.1,0.4-0.4,0.7-0.7c4.3-5.9,8.5-11.8,12.8-17.7c0.6-0.9,1.3-1.3,2.4-1.3c0,0,0.1,0,0.1,0c1.8,0,3.6,0,5.4,0
				c2.3,0,4.6,0,7,0c-0.6,0.8-0.9,1.4-1.4,2C-0.6,49.2-12.5,65.9-24.3,82.6c-2,2.9-3.6,6.2-4.8,9.5c-1.4,3.8,0.1,5.9,3.9,5.9
				c0.2,0,0.4,0,0.7,0c1.1-0.1,2.3-0.4,3.3-0.8c5.9-2.1,19.3-12,23.3-17c-3.4-6.6-3.5-13.1,1.1-19c3-3.9,6.9-5.9,11.6-5.9
				c0.8,0,1.7,0.1,2.5,0.2c0.2,0,0.4,0,0.5,0c1.1,0,1.6-0.6,2.2-1.5C40.8,24.6,61.5-4.8,82.4-34.1c9.8-13.7,19.9-27.2,31.4-39.6
				c6.2-6.6,12.6-13.1,20.6-17.6c2.3-1.3,4.9-2.2,7.5-2.7c0.5-0.1,0.9-0.1,1.3-0.1c2.3,0,3.6,1.5,4.1,4.1c0.7,3.4-0.1,6.6-1.1,9.8
				c-2.9,9-7.9,16.8-13.3,24.4c-10.9,15.6-23.4,30-36.7,43.7C81.1,3.3,65.1,17.8,47.8,31c-0.6,0.5-1.1,1.2-1.6,1.9
				C40,42,33.9,51.2,27.7,60.3c-0.3,0.5-0.7,1.4-0.5,1.8c2.8,5,2.8,10.4,2.6,15.8c0,0.4,0,0.7,0.1,1.6c3.4-2.1,6.6-3.9,9.6-6
				c10.6-7.7,19.1-17.4,26.5-28.1c3.2-4.7,6.7-9.2,10-13.8c0.3-0.5,0.9-1,1.4-1.1c2.4,0,4.7-0.1,7.1-0.1c2,0,4.1,0,6.2,0
				c-0.6,0.9-0.9,1.4-1.3,2C77.6,49.2,65.7,65.9,53.9,82.6c-2.1,2.9-3.6,6.3-4.9,9.7c-1.3,3.5,0,5.7,3.2,5.7c0.4,0,0.8,0,1.2-0.1
				c2.9-0.4,5.8-1.5,8.3-3c9.5-5.6,17.8-12.7,24.8-21.2c2.2-2.7,3.8-5.9,5.5-8.9c6.3-11.3,14.4-21,24.9-28.6
				c3.6-2.6,7.6-4.7,12.1-5.3c0.7-0.1,1.4-0.2,2.1-0.2c6.5,0,10.1,4.6,11.1,9.7c1.6,7.8-0.7,14.8-5.4,21
				c-5.6,7.3-13.2,11.8-21.7,14.6c-4.9,1.6-10,2.5-15,3.6c-1.2,0.3-2.1,0.6-2.4,2C97,84.8,96,88,95.8,91.3c-0.2,4.6,2.2,6.9,6.5,6.9
				c0.3,0,0.6,0,0.9,0c5.2-0.3,9.8-2.5,14.3-5.1c11.2-6.6,20.3-15.6,28.6-25.5c4.5-5.4,8.8-11.1,13.2-16.6c0.6-0.8,1.4-1.4,2.1-2
				c0.2,0.1,0.4,0.2,0.5,0.4c-0.6,1.2-1,2.4-1.7,3.4c-3.9,5.2-7.6,10.5-11.8,15.5c-8.4,10.1-17.7,19.4-29,26.5
				c-5.1,3.3-10.6,5.8-16.7,6.8c-1.1,0.2-2.3,0.3-3.3,0.3c-7.7,0-13.1-5.1-13.6-13.5c-0.2-2.8,0-5.6,0-8.4c-1.2,1.1-2.6,2.5-4,3.8
				c-6.9,6.4-14.2,12.3-22.9,16.1c-2.3,1-4.9,1.6-7.3,1.7c-0.2,0-0.3,0-0.5,0c-5.2,0-8.8-3.7-9.3-8.9c-0.5-5,0.7-9.8,2.9-14.2
				c1.3-2.6,2.7-5,3.9-7.8c-0.4,0.3-0.8,0.5-1.2,0.8c-5.2,4.3-10.7,8.1-16.9,10.8c-1.4,0.6-1.2,1.9-1.3,2.9
				c-0.7,7.2-2.3,14.2-4.5,21.1c-5.2,16.1-13.5,30.5-23.1,44.2c-7.5,10.8-16,20.9-26,29.5c-3.8,3.3-7.9,6.2-12.6,8.2
				c-2.1,0.8-4.2,1.3-6.3,1.3c-1.4,0-2.9-0.2-4.4-0.7c-3.3-1-5-3.4-5.2-6.8c-0.2-4.6,1-8.8,2.5-13c4.9-13.1,11.6-25.3,18.9-37
				c7.9-12.7,16.1-25.1,24.2-37.7c0.4-0.6,0.8-1.2,1.4-2.1c-3.8,2.3-7.1,4.6-10.6,6.4c-2.5,1.3-5.3,2.3-8,2.9
				c-0.8,0.2-1.6,0.3-2.3,0.3c-5.3,0-9.4-4.1-9.6-9.8c0-1.2,0-2.4,0-3.8c-2.3,2.1-4.2,4.1-6.4,5.9c-4.1,3.5-8.6,6.3-14,7.5
				c-1.2,0.3-2.4,0.4-3.6,0.4c-6.5,0-11.2-4.4-11.7-11.7c-0.2-3.5,0.2-7,0.3-10.4c-0.7,0.8-1.7,1.7-2.6,2.7
				c-5.7,5.9-11.6,11.7-18.7,16c-2.5,1.6-5.2,3-8.2,3c-0.5,0-1.1,0-1.7-0.1c-4.7-0.8-7.8-4.4-8.3-9.7c-0.7-7.4,1.8-13.9,5.4-20.1
				c4.9-8.4,11.1-15.9,17.3-23.4c1.5-1.9,3-3.8,4.2-5.9c1.5-2.5,1.2-3.9-1.2-5.5c-2.4-1.6-4.9-3-7.2-4.3
				c-5.2,7.2-10.2,14.4-15.5,21.3c-12.8,16.4-27.1,31.5-44.3,43.3c-4.5,3.1-9.4,5.6-14.1,8.4c-0.9,0.5-1.8,1.2-2.4,2.1
				c-10.8,15.9-21.7,31.7-33.8,46.7c-11.5,14.3-23.7,28-37.9,39.6c-8.1,6.6-16.6,12.6-26.6,16c-2.8,1-5.7,1.7-8.7,1.7
				c-1.2,0-2.5-0.1-3.7-0.4c-6.2-1.4-10.5-7-10.9-13.6c-0.5-9,2.7-16.9,7.1-24.4c6.3-10.8,15-19.3,24.7-26.9
				c20.6-16.1,43.7-27.6,68-36.8c2.9-1.1,5.8-2.4,8.8-3c4.1-0.8,5.8-3.8,8.1-7.1c-1.8,0.6-3.2,1.4-4.8,1.6c-1.8,0.3-3.8,0.6-5.6,0.6
				c-0.7,0-1.4,0-2.1-0.2c-5.6-1-9-5.6-9.1-12c-0.1-3.1,0.3-6.2,0.5-9.5c-1.7,1.6-3.3,3.2-5,4.7c-6.5,5.9-13.3,11.4-21.4,14.9
				c-2.5,1.1-5.3,1.9-8,1.9c-0.2,0-0.3,0-0.5,0c-5.7-0.2-8.9-3.9-9.2-10c-0.1-2.7,0.4-5.4,0.6-8c-2.9,2.4-5.9,5.3-9.3,7.6
				c-4.7,3.2-9.6,6-14.5,8.9c-1.3,0.8-3,1.1-4.5,1.4c-0.9,0.2-1.7,0.3-2.5,0.3c-5.6,0-9.7-4-9.8-10.2c0-2.5,0.4-5,0.5-7.5
				c-3.2,2.6-6.4,5.6-9.9,8c-4.3,2.9-8.8,5.6-13.4,8.1c-2,1.1-4.2,1.7-6.5,1.7c-0.7,0-1.3-0.1-2-0.2c-4.9-0.9-8-4.1-8.2-9.1
				c-0.1-2.9,0.2-5.8,0.4-8.7c-2.1,1.8-4.3,3.8-6.6,5.6c-5.8,4.6-11.8,9-18.9,11.4c-1.4,0.5-3,0.8-4.5,0.9c-0.2,0-0.3,0-0.5,0
				c-5.5,0-9.5-4-9.8-9.5c-0.1-1.3,0-2.5,0-4.1c-2.1,2-3.9,3.8-5.9,5.5c-4.2,3.7-8.9,6.7-14.4,7.9c-1.3,0.3-2.5,0.4-3.7,0.4
				c-6.6,0-11.2-4.4-11.6-11.8c-0.2-3.2,0.4-6.5,0.6-9.7c0-0.5,0.1-1,0.2-1.8c-2.7,2.5-5.1,4.8-7.6,7c-6.4,5.5-13.1,10.6-20.9,14
				c-3.1,1.3-6.2,2-9.4,2c-1.7,0-3.4-0.2-5.2-0.6c-7.8-1.8-12.4-7.4-12.5-15.5c-0.1-7.3,2.2-14,6.4-19.9c4.5-6.2,9.4-12.1,14.1-18.1
				c3.2-4,5.4-8.5,5.8-13.7c0.3-4.2-0.7-8.1-3.1-11.3c-5.9,1.3-11.5,2.7-17.3,3.6c-5.5,0.9-11,1.3-16.5,1.8
				c-1.2,0.1-1.9,0.4-2.7,1.4c-9.8,12.8-20,25.2-31.5,36.5c-13.7,13.6-29.4,24-47.9,29.9c-0.5,0.2-0.9,0.3-1.5,0.6
				c5.3,2.5,10.6,3.7,16,3.7c2.9,0,5.8-0.3,8.7-1c8.4-1.9,15.6-5.9,22.2-11.7c0.6,2.4-0.3,3.7-1.4,4.9c-3.7,3.6-8.1,6.2-12.8,8.2
				c-5.3,2.2-10.5,3.3-15.8,3.3c-5.4,0-10.8-1.2-16.1-3.6c-2.4-1.1-4.6-1.5-6.8-1.5c-1.8,0-3.7,0.3-5.7,0.8c-14,3.6-28.3,6-42.8,6
				c-1.3,0-2.6,0-3.9-0.1c-4.3-0.1-8.6-1.1-12.8-1.8c-1.2-0.2-2.4-0.9-3.5-1.5c-3.5-2.1-4.3-5.2-2-8.6c3.4-5,8.4-8,13.8-10.2
				c5.3-2.2,10.7-3.2,16.1-3.2c6,0,12,1.3,17.9,3.5c7.1,2.7,13.9,6,20.8,9.2c0.8,0.4,1.6,0.6,2.4,0.6c0.6,0,1.1-0.1,1.8-0.2
				c12.2-3.1,22.5-9.5,31.5-18.1c10.2-9.7,18.9-20.8,27.6-31.8c3.5-4.4,6.9-8.9,10.4-13.3c0.3-0.4,0.7-0.9,1.2-1.6
				c-2.8-0.4-5.5-0.5-8-1.1c-3.8-0.9-7.6-2.1-11.3-3.4c-1.1-0.4-2.2-1.3-3.1-2.2c-2.2-2.1-2.5-5.1-0.5-7.4c1.5-1.8,3.5-3.4,5.5-4.6
				c6.5-3.6,13.6-4.9,20.9-5.6c3.5-0.3,7.1-0.4,10.6-0.4c0.9,0,1.9,0,2.8,0c0,0,0.1,0,0.1,0c1.7,0,2.8-0.5,3.9-1.9
				c12.6-16.9,25.1-33.9,37.9-50.6c8.9-11.6,18.2-22.8,27.4-34.2c0.1-0.1,0.2-0.3,0.4-0.6c-5.3-1.4-10.4-2.9-15.7-4.1
				c-10.5-2.5-21-5.3-31.6-7.3c-7.5-1.4-15.1-2.3-22.7-2.3c-4.2,0-8.4,0.3-12.6,0.8c-13.2,1.8-24.2,8-33.2,17.7
				c-7.5,8-13.7,16.8-16.5,27.6c-1.4,5.5-2,11-0.6,16.6c2,8.1,8.8,13.1,16.9,13.1c0.6,0,1.3,0,1.9-0.1c18.4-1.7,32.1-11.4,43.2-25.4
				c7.2-9.1,12-19.5,15.5-30.5c1-3.2,1.7-4.4,3.7-5.6c0,1.3,0.2,2.4,0,3.4c-5.2,18.8-13.9,35.5-29.1,48.2
				c-8.4,7-17.8,11.9-28.6,13.7c-2,0.3-3.9,0.5-5.7,0.5c-12.5,0-20.4-7.7-24.2-18.8c-4.6-13.7-1.4-26.3,7-37.5
				c11.2-15.1,26.4-23.7,44.7-27c6.1-1.1,12.1-1.6,18.2-1.6c7.5,0,15.1,0.7,22.6,1.8c16.3,2.3,31.8,7.4,47.4,12.6
				c0.7,0.2,1.3,0.4,1.9,0.4c1.2,0,2.1-0.5,3.3-1.5c6.3-5.7,13.2-10.6,21.5-13.3c1.7-0.6,3.5-1,5.2-1c0.9,0,1.7,0.1,2.6,0.4
				c2.7,0.8,4,3.1,3.1,5.8c-1.5,4.6-4.9,7.6-8.9,9.8C-367-83.7-373.8-82-381-82c-0.2,0-0.4,0-0.6,0c0,0,0,0,0,0
				c-0.8,0-1.9,0.7-2.4,1.4c-5.4,7.2-11,14.3-16.1,21.7c-14.8,21.2-29.5,42.6-44.3,63.9c-0.1,0.2-0.2,0.4-0.5,0.8
				c1.1,0.4,2.2,0.7,3.2,1.1c5.4,1.8,10.3,4.4,14.5,8.3c0.6,0.5,1,0.7,1.5,0.7c0.4,0,0.8-0.1,1.3-0.4C-411,9.4-399.3,1.1-389.6-10
				c12.8-14.7,25.6-29.5,38.3-44.4c12.4-14.5,25.8-28,41.2-39.3c3.3-2.4,6.9-4.5,10.6-6.5c2.4-1.3,4.9-1.8,7.5-1.8
				c1.3,0,2.7,0.1,4.1,0.4c3.5,0.7,6,4.6,5,8c-0.3,1-1.3,2.1-2.2,2.6c-0.3,0.1-0.5,0.2-0.7,0.2c-0.6,0-1.1-0.6-1-1.6
				c0.4-3.5-1.3-5.7-4.5-5.7c-0.4,0-0.8,0-1.2,0.1c-2.3,0.4-4.7,1.2-6.8,2.3c-7.1,3.8-13,9.1-18.9,14.6
				c-13.6,12.9-24.7,27.8-35.1,43.4c-6.5,9.8-13.1,19.5-21.1,28.1c-12.7,13.7-28.2,23.2-45.4,30.1c-0.5,0.2-1,0.3-1.4,0.5
				c-0.1,0-0.1,0.1-0.1,0.1c0,0,0,0,0,0c1.4,3.3,3,6.4,4.2,9.7c2.8,7.4,2.4,14.8-1.5,21.6c-3.8,6.6-8,12.9-12.2,19.2
				c-3.4,5.1-7.1,10-9.1,15.9c-0.2,0.5-0.3,1-0.5,1.5c-1.6,5.7,0.9,9.1,6.8,9.7c0.7,0.1,1.3,0.1,2,0.1c4.3,0,8.2-1.4,11.9-3.5
				c12.1-7.1,22.5-16,30.3-27.9c6.1-9.4,12.6-18.6,21.3-26c5.4-4.6,11-8.7,18.1-10.4c1-0.2,2-0.4,3-0.4c5.5,0,9.6,3.7,10,9.8
				c0.3,3.4-0.2,6.8-0.3,10.2c0.4-0.6,1-1.4,1.6-2.2c4-5.5,8-11.1,12.1-16.6c0.4-0.5,1-1.1,1.6-1.1c2.3,0,4.5-0.1,6.8-0.1
				c2.1,0,4.2,0,6.4,0c-1.5,2.1-2.8,3.9-4.1,5.7c-10.5,14.7-21.1,29.3-31.4,44.1c-2.4,3.4-4.2,7.1-6,10.8c-0.9,1.8-1.4,3.9,0.2,5.6
				c0.9,1,2,1.3,3.2,1.3c0.8,0,1.7-0.2,2.5-0.4c4.4-1.1,8.1-3.6,11.8-6.2c7.3-5.2,14.2-10.9,19.7-18.1c4.1-5.3,7.3-11.2,11.2-16.7
				c16.5-22.9,33.2-45.8,49.8-68.7c1.5-2.1,3.1-4.2,4.7-6.5c-7.4-1.4-14.6-2.8-21.8-4c-8.6-1.5-17.2-3-25.9-4
				c-3.9-0.5-7.8-0.8-11.8-0.8c-4.9,0-9.7,0.6-14.4,2.1c-7,2.4-12.7,6.6-15.4,13.8c-3.3,8.8,2.1,16.4,11.1,16.4c0.5,0,1,0,1.6-0.1
				c1.1-0.1,2.3-0.2,3.4-0.4c3.8-0.6,6.3-2.8,7.7-6.4c0.6-1.5,1.3-2.9,2.3-4.1c0.6-0.7,1.8-0.9,2.7-1.3c0.1,1,0.4,2.1,0.1,3
				c-0.8,2.8-2.7,5-5,6.8c-4.1,3.2-8.6,4.9-13.4,4.9c-1.8,0-3.7-0.2-5.7-0.7c-9.4-2.4-13.3-11.2-8.5-19.7
				c4.8-8.4,12.4-13.2,21.6-15.5c4-1,8.1-1.5,12.2-1.5c2.6,0,5.2,0.2,7.8,0.6c14.4,2,28.7,4.5,43,6.9c3,0.5,5.9,0.9,8.9,1.5
				c0.2,0.1,0.5,0.1,0.7,0.1c0.7,0,1.2-0.4,1.7-1c11.6-15.7,23.2-31.4,34.9-47c11.8-15.7,23.8-31.3,37.3-45.7
				c9.1-9.7,18.8-18.8,30.2-25.8c7.1-4.4,14.6-7.8,23-8.8c0.2,0,0.5-0.2,0.7-0.3C-115.5-149.6-112.2-149.6-108.9-149.6 M-379.7-85.4
				c2.5-0.4,4.7-0.5,6.8-1c6.1-1.4,11.4-4.2,15.6-9c0.6-0.6,0.6-1.7,0.9-2.5c-0.9-0.2-1.8-0.4-2.6-0.5c0,0-0.1,0-0.1,0
				c-0.6,0-1.2,0.2-1.7,0.4c-7.1,2.4-13,6.5-18.4,11.6C-379.3-86.2-379.4-86-379.7-85.4 M-199-18.9c5.6-1.5,11.2-2.7,16.7-4.5
				c11.7-3.9,21.1-11.2,28.4-21.1c9.4-12.7,16.3-26.5,18-42.4c0.3-2.6-0.1-5.3-0.6-7.9c-0.3-1.7-1.1-2.6-2.3-2.6
				c-0.6,0-1.3,0.2-2.1,0.6c-1.5,0.8-3,1.8-4.3,2.9c-6.6,5.7-12,12.5-17,19.6c-10.4,14.9-20.5,30-30.7,45.1
				c-2.2,3.2-4.3,6.4-6.5,9.7C-199.2-19.3-199.1-19.1-199-18.9 M-87.3-92.3c-10.6,3.7-19,9.4-24.3,19c-1.2,2.2-1.9,4.9-2.3,7.4
				c-0.3,2.4,1.2,4.1,3.3,4.1c0.5,0,1-0.1,1.5-0.2c2.4-0.8,4.8-1.9,6.7-3.5C-94.4-72.6-90.6-82-87.3-92.3 M52.4,24.4
				c0.5-0.4,1-0.7,1.5-1.1C80.5,2.2,104-22,125.1-48.4c7.3-9.1,13.7-18.7,17.9-29.7c1.2-3.1,2-6.5,2.4-9.8c0.4-2.9-0.6-4.2-2.8-4.2
				c-0.6,0-1.2,0.1-1.9,0.2c-4.7,1-8.2,3.9-11.5,7.2c-8.2,8-15,17.3-21.4,26.7C93.1-36.6,78.6-15,64,6.5c-4,5.8-7.9,11.7-11.9,17.6
				C52.2,24.2,52.3,24.3,52.4,24.4 M-48.6-54.7C-54.8-51.5-58.9-47-61.3-41c-0.3,0.7-0.4,1.5-0.5,2.2c-0.1,1.5,0.6,2.4,1.7,2.4
				c0.4,0,0.8-0.1,1.2-0.3c1-0.5,2-1.3,2.8-2.3C-52.3-43.4-50.4-48.8-48.6-54.7 M-306.2,97.3c1.4,0,2.9-0.7,4.2-1.4
				c7.2-3.7,13.6-8.5,19.6-13.9c3.8-3.4,7.3-7.1,10.4-11.1c3.2-4.2,5.7-8.9,8.8-13.2c15.6-21.8,31.3-43.5,47-65.2
				c1.8-2.5,3.6-4.9,5.5-7.6c-0.6-0.1-1-0.1-1.3-0.1c0,0-0.1,0-0.1,0c-1.8,0.1-3.5,0.2-5.3,0.2c-6.7,0-13.3-0.7-19.9-1.5
				c-0.4,0-0.7-0.1-1-0.1c-0.8,0-1.4,0.2-2,1.1c-22,32.2-44.1,64.4-66.1,96.7c-1.7,2.5-2.8,5.4-3.8,8.3c-0.9,2.5-1,5.2,1.4,7
				C-307.9,97-307,97.3-306.2,97.3 M-474.5,24.8c0.6,0,1.3-0.5,1.7-1c3.4-4.2,6.6-8.4,10-12.6c0.6-0.8,1.2-1.6,2-2.6
				c-0.5-0.1-0.8-0.1-1-0.1c0,0,0,0-0.1,0c-4.7,0.2-9.4,0.2-14.1,0.7c-5.3,0.6-10.5,1.7-15.4,4.2c-1.9,0.9-4.2,1.9-4.2,4.3
				c0,2.5,2.5,3.3,4.5,4.1C-485.7,23.9-480.1,24.4-474.5,24.8C-474.5,24.8-474.5,24.8-474.5,24.8 M-458.3,24.5
				c9.9-0.8,19-3,27.9-6.4c-0.2-0.3-0.2-0.4-0.3-0.5c-4.9-3.7-10.6-5.8-16.5-7.2c0,0-0.1,0-0.1,0c-0.5,0-1.2,0.5-1.5,0.9
				c-1.9,2.6-3.8,5.3-5.7,7.9C-455.7,20.8-456.9,22.5-458.3,24.5 M100,76.7c5-0.6,9.9-1.7,14.6-3.6c9.6-3.8,17.3-9.8,21.3-19.6
				c2-5,3-10.2,1.3-15.5c-0.7-2.2-1.7-3.4-3.3-3.4c-0.7,0-1.4,0.2-2.3,0.6c-2.8,1.3-5.5,3.1-7.7,5.2c-6.8,6.3-11.8,14.1-16.6,21.9
				c-2.8,4.5-5.2,9.3-7.8,14C99.6,76.4,99.8,76.5,100,76.7 M-182.9,97.8c0.8,0,1.7-0.2,2.7-0.6c1.6-0.6,3.2-1.4,4.6-2.4
				c12.8-9.3,22.3-21.2,28.9-35.5c2.3-4.9,3.9-10.1,4.1-15.6c0.2-4.3-1.2-6.7-3.8-6.7c-1.2,0-2.7,0.5-4.4,1.6
				c-3.9,2.4-7.7,5.3-10.9,8.6c-9.2,9.1-15.6,20.1-20.5,32c-1.8,4.4-3.4,8.9-3.6,13C-186.1,96.1-185.1,97.8-182.9,97.8 M-382,98
				c0.4,0,0.8-0.1,1.3-0.2c2.3-0.7,4.6-1.6,6.5-3c11.8-8.4,20.7-19.4,27.3-32.3c3-5.8,5.2-11.9,5.4-18.5c0-0.6,0-1.3,0-1.9
				c-0.2-3.1-1.4-4.8-3.6-4.8c-0.8,0-1.7,0.2-2.7,0.7c-2.5,1.1-4.9,2.5-7,4.2c-14.4,12-23.4,27.4-28.8,45.1
				c-0.8,2.5-0.9,5.3-0.9,7.9C-384.4,96.9-383.5,98-382,98 M-59.8,97.9c0.8,0,1.8-0.2,2.8-0.7c2-0.9,4.1-1.9,5.8-3.2
				c11.7-8.9,20.7-20.1,27.1-33.4c2.5-5.3,4.4-10.9,4.5-16.8c0-0.9,0.1-1.8,0-2.7c-0.3-2.6-1.6-3.9-3.6-3.9c-0.6,0-1.2,0.1-1.9,0.3
				c-1.1,0.3-2.2,0.7-3.1,1.4c-3.5,2.7-7.3,5.2-10.4,8.3c-9,9-15.4,19.6-20.1,31.3c-1.8,4.4-3.2,9.2-3.9,13.9
				C-63.3,96.4-61.9,97.9-59.8,97.9 M4.8,76.3c4-5.9,7.8-11.5,11.8-17.3c-0.5-0.1-0.9-0.1-1.4-0.1C6.2,58.9,1.8,69.5,4.8,76.3
				 M16.5,82.8c3.1,0,6-0.6,8.8-1.7c0.5-0.2,1.1-1,1.2-1.6c0.2-2.2,0.3-4.3,0.2-6.5c-0.1-2.8-0.4-5.5-2-8.2
				c-4,5.9-7.8,11.6-11.9,17.6C14.1,82.7,15.3,82.8,16.5,82.8 M26.6,84.1c-1.2,0.4-1.8,0.5-2.3,0.7c-2.8,0.8-5.6,1.4-8.5,1.4
				c-1,0-2-0.1-3-0.2c-0.3,0-0.6-0.1-0.8-0.1c-1.2,0-1.8,0.5-2.5,1.6c-13.8,20.5-27.8,41-41.6,61.5c-5.1,7.6-9.8,15.4-14.3,23.3
				c-1.5,2.7-2.3,5.9-2.9,9c-0.5,2.5,1.1,4,3.6,4.6c0.8,0.2,1.7,0.3,2.5,0.3c1.9,0,3.7-0.5,5.3-1.4c4-2.3,8.1-4.6,11.7-7.5
				c11.6-9.4,20.8-21,28.8-33.5c8.7-13.6,16.5-27.7,20.6-43.5C24.5,95.1,25.4,89.8,26.6,84.1 M-599.7,101c1.1,0,2.2,0,3.3-0.1
				c9.6-0.8,19.1-2.1,28.6-3.3c4.2-0.6,8.3-1.6,12.5-2.4c0-0.2,0-0.4,0.1-0.5c-3.4-1.5-6.7-3.1-10.1-4.5c-7.7-3.3-15.5-5.3-23.6-5.3
				c-3.1,0-6.3,0.3-9.5,1c-5.5,1.1-10.8,3.1-15.1,7c-1.4,1.3-3,2.8-2.3,4.9c0.6,2,2.8,2.5,4.6,2.6C-607.4,100.6-603.6,101-599.7,101
				 M-275.1,208.8c0.1,0,0.2,0,0.3,0c5.5-0.1,10.4-2.3,14.9-5.5c9-6.4,16.3-14.4,23.5-22.6c14-16,26.9-32.9,39.6-49.9
				c4.8-6.4,9.5-12.9,14.3-19.4c-0.1-0.1-0.1-0.2-0.2-0.4c-0.5,0.1-1.1,0.2-1.6,0.4c-27.6,9-53,22.1-75.5,40.5
				c-8.8,7.1-16.5,15.2-22.2,25.1c-3.5,6.2-6.1,12.6-5.5,19.9C-287,203.9-282,208.8-275.1,208.8 M-104.5-181.6h-4.3h-10h-6.2l-3,1.2
				c-10.4,1.9-20.7,6.1-31.3,12.6c-15.6,9.6-27.8,21.7-36.7,31.1c-14.7,15.7-27.6,32.5-39.6,48.4c-8.2,10.9-16.4,21.9-24.4,32.7
				c-1.2-0.2-2.3-0.4-3.5-0.6c-5.9-1-12-2-18.1-3c4.2-0.6,8.3-1.9,12.1-4.1c8.4-4.7,14.7-12.6,17.2-21.7c2.9-10.2,1.3-21.2-4.2-30.4
				c-5.6-9.2-14.8-15.7-25.2-17.8c-3.5-0.7-7-1.1-10.4-1.1c-8.1,0-15.8,1.9-22.8,5.7c-3.5,1.9-7.8,4.4-12.3,7.4
				c-4.6-6-11.1-10.4-18.6-12.6c-3.8-1.1-7.8-1.7-11.8-1.7c-6.4,0-11.7,1.5-15.1,2.6c-7.1,2.3-13.8,5.6-20.5,10
				c-5.2-1.6-10.8-3.3-16.5-4.8V-141l-16,10.1c-2.2-0.4-4.4-0.8-6.6-1.1c-9.9-1.4-18.8-2.1-27.1-2.1c-8.4,0-16.2,0.7-23.9,2.1
				c-27.2,4.9-49,18.2-64.7,39.4c-15.1,20.4-19.2,44.2-11.5,66.8c3.8,11.3,10.3,21,18.7,28c2.9,2.4,6,4.5,9.3,6.2
				c-2.7,10.4-0.8,21.7,5.7,30.8c-3.9,4.6-7.8,8.9-11.8,12.7c-3.3,3.2-6.6,5.6-10,7.4c-4.2-1.9-8.5-3.8-13.1-5.5
				c-9.8-3.7-19.6-5.6-29.3-5.6c-9.7,0-19.2,1.9-28.3,5.6c-12.5,5.1-21.7,12.3-28.2,22c-6.1,9-8.1,19.6-5.8,29.7
				c2.3,10.1,8.8,18.8,18.2,24.3c3.1,1.8,7.9,4.3,14.2,5.4c0.8,0.1,1.6,0.3,2.4,0.4c4.1,0.7,9.1,1.7,14.9,1.8c1.6,0,3.2,0.1,4.9,0.1
				c14.7,0,30.1-2,47.1-6.1c7.9,2.9,16.1,4.4,24.4,4.4c9.5,0,19-2,28.2-5.9c9.1-3.8,16.5-8.7,22.8-14.9c0.8-0.8,1.6-1.7,2.4-2.5
				c0.8,1.1,1.6,2.2,2.4,3.3c6.7,8.2,15.9,13.9,26.7,16.4c4.1,1,8.3,1.4,12.5,1.4c7.5,0,15-1.6,22.1-4.7c1.2-0.5,2.3-1,3.5-1.6
				c6.8,4.2,14.8,6.5,23.2,6.5c3.5,0,7.1-0.4,10.7-1.2c2.4-0.5,4.8-1.3,7.2-2.1c5,2,10.4,3.1,15.9,3.1c0.6,0,1.2,0,1.9,0
				c4.5-0.2,9-1.1,13.5-2.6c1.8-0.6,3.5-1.3,5.2-2c3.8,1.9,7.9,3.3,12.3,4c2.5,0.4,5,0.6,7.5,0.6c6.8,0,13.6-1.6,19.8-4.6
				c0.1,0,0.2,0.1,0.2,0.1c-9.7,8.8-17.2,17.9-23,27.9c-11.2,19.3-11.9,33.4-11.4,42.3c0.6,9.9,4.1,19.2,10.1,26.9
				c6.4,8.1,15.5,13.9,25.5,16.2c3.5,0.8,7.2,1.2,10.9,1.2c8.1,0,14.8-2,19.1-3.5c15.6-5.4,27.7-14.3,36.5-21.6
				c17.8-14.6,32.1-31.3,42.5-44.3c11.9-14.7,22.5-30,32-43.9c0,0,0,0,0,0c3.5-2,7.4-4.2,11.5-7c1.1-0.8,2.3-1.6,3.4-2.4
				c6,6.1,13.8,10.3,22.7,11.8c2.3,0.4,4.7,0.6,7.1,0.6c8.4,0,15.2-2.6,19.9-4.9c3.8,2.1,7.9,3.5,12.2,4.4
				c-4.5,8.5-8.2,16.6-11.2,24.7c-2.2,5.9-5.1,15.1-4.5,26c0.9,16.8,11.4,30.4,27.4,35.5c4.6,1.5,9.3,2.2,14.1,2.2
				c6.2,0,12.4-1.2,18.4-3.7c9.6-3.9,16.8-9.6,21.4-13.5c11.3-9.6,21.6-21.3,31.5-35.6c8.6-12.4,15.3-23.9,20.5-35.2
				c0.9,0.1,1.8,0.1,2.7,0.1c0.6,0,1.3,0,1.9,0c6.2-0.3,12.7-1.8,18.6-4.3c1.4-0.6,2.8-1.2,4.1-1.9c6.9,4.1,15,6.5,23.8,6.5
				c2.9,0,5.9-0.3,8.9-0.8c9.7-1.7,18.9-5.4,28.2-11.3c12.9-8.1,24.5-18.6,36.5-33.1c3.9-4.7,7.3-9.3,10.6-13.8
				c0.8-1.1,1.6-2.1,2.3-3.2c2.7-3.7,4.2-7.1,4.9-8.8l0,0l11.7-24.2l-22.3-15.7l-0.5-0.4L158.5,7.8l-0.4,0.4
				c-2.9-2.4-6.1-4.3-9.6-5.8l2.6-3.8H130c11.1-12.2,20.7-24.1,29.1-36.1c6.6-9.4,13.2-19.8,17.5-32.8c2-6,4.3-15.2,2.1-26.2
				c-1.5-7.4-5-13.9-9.9-19c-6.7-6.8-15.8-10.6-25.5-10.6c-2.5,0-5,0.2-7.5,0.7c-6.2,1.2-11.9,3.3-17.1,6.3
				c-12,6.8-20.8,15.7-28.1,23.6c-4.6,4.9-8.9,9.9-13,14.9l1.8-6.2L16.6-59.2c-0.4,0.2-0.8,0.3-1.1,0.5c-0.3,0.1-0.6,0.3-0.9,0.4
				c-0.7,0.3-1.4,0.6-2,0.9c-1.5-2.5-3.1-5.1-4.9-7.7C2.2-73.6-5-80.2-13.4-84.6c-1.7-9.6-5.8-18.4-11.9-25.6
				c-6.4-7.5-14.9-13-24.6-16.1c-0.3-1.6-0.6-3.2-0.9-4.7c-2.2-10-6.2-18.8-11.8-26.2c-6.6-8.7-15.1-15.3-25.5-19.6
				c-4.1-1.7-7.8-2.6-10.5-3.3c-0.7-0.2-1.3-0.3-1.7-0.4L-104.5-181.6L-104.5-181.6z M-144.6-1.6c9.5-6.4,17.6-14.5,24.2-24.3
				c0.1-0.2,0.3-0.4,0.4-0.6c2.6,0.5,5.2,0.8,7.9,0.8c0.9,0,1.7,0,2.6-0.1c1.2-0.1,2.5-0.2,3.7-0.4c-9.5,7.3-17,16.6-22.2,27.7
				c-0.3,0.5-0.5,1.1-0.7,1.6c0,0,0,0,0,0c-0.5-0.2-0.9-0.5-1.4-0.7l2.9-4.1H-144.6L-144.6-1.6z M-43.6-4.5c2.3-1.1,4.9-2.7,7.4-4.8
				c0.1,0.1,0.2,0.3,0.3,0.4c2.3,2.8,4.8,5.3,7.5,7.5c-0.4,0-0.7,0.1-1.1,0.1c-4.9,0.5-9.7,1.6-14.3,3.4
				C-43.5-0.1-43.5-2.3-43.6-4.5L-43.6-4.5z"/>
			<path class="st2" d="M-108.9-149.6c2.9,0.8,5.8,1.3,8.6,2.4c10.4,4.3,15.8,12.6,18.2,23.2c2,8.7,1.3,17.4-0.6,26
				c-0.1,0.4-0.1,0.7-0.2,1.3c2.6-0.3,5.1-0.9,7.6-0.8c4.6,0.2,9.2,0.2,13.6,1.2c10,2.3,16.2,9.5,17,19.8c0.4,5.7,0.1,11.4,0.1,17
				c3.1,0.3,6.4,0.3,9.6,0.9c6.8,1.3,12,5.1,15.8,10.9c3,4.5,5.7,9.2,8.6,13.8c3.3,5.2,7.3,9.6,13.8,10.6c4.8,0.8,9.4-0.1,13.9-1.5
				c3.3-1.1,6.5-2.6,9.7-4c0.7-0.3,1.5-0.6,2.5-1.1c-0.7,2.5-2.3,3.8-3.9,4.9c-11.2,8.2-28,6.3-36.9-4.4c-2.3-2.7-4.1-5.8-6-8.9
				c-2.7-4.5-5.4-9-9.4-12.5c-5-4.3-10.8-6-17.4-5.4c-1.2,0.1-1.5,0.7-1.9,1.7c-1.8,4.8-3.4,9.7-5.6,14.3c-1.1,2.3-3.3,4.2-5.1,6.1
				c-0.7,0.7-1.9,1.1-2.9,1.4c-3.5,1-6.1-0.8-6-4.5c0.1-5.7,2.9-10.3,6.6-14.5c2.8-3.1,6.1-5.4,10.1-6.8c0.5-0.2,1.2-0.7,1.2-1.2
				c0.8-6.3,1.3-12.6-0.1-18.8c-1.8-8.5-7.5-13.2-15.8-14.9c-6.2-1.3-12.5-1.2-18.8-0.2c-1.4,0.2-1.7,0.9-2.1,2
				C-86.9-83-90.6-75.1-96-68.1c-2.8,3.5-5.8,6.8-9.9,8.9c-1.8,0.9-3.8,1.4-5.8,1.6c-3.4,0.2-5.9-2.2-6.3-5.6
				c-0.4-3.3,0.4-6.3,1.8-9.2c4.2-8.5,11-14.5,19.3-18.8c2.9-1.5,6.1-2.5,9.1-3.9c0.6-0.3,1.5-0.8,1.6-1.3
				c2.6-10.4,3.4-20.8-0.2-31.1c-4-11.4-13.5-18.2-25.6-18.6c-11.7-0.4-22,3.8-31.5,10c-12.2,8-22.3,18.3-31.7,29.3
				c-12.1,14-22.3,29.4-32.7,44.6c-9.4,13.6-18.7,27.2-28.1,40.8c-0.4,0.5-0.7,1-1.1,1.7c9.5,1.4,18.8,1.5,28.2,1.2
				c0.6,0,1.3-0.6,1.7-1.2c8.7-11.9,17.4-23.8,26.2-35.7c8.7-11.8,17.5-23.6,27.7-34.2c3-3.1,6.5-5.7,9.8-8.5c0.9-0.7,2-1.2,3-1.6
				c3.4-1.3,6-0.3,6.7,3.3c0.7,3.6,1.3,7.3,1.1,11c-0.7,15.2-5.7,29.1-14.2,41.6c-9.2,13.6-22.3,21.4-38,25.1
				c-5.1,1.2-10.4,1.8-15.6,2.7c-0.7,0.1-1.6,0.7-2.1,1.3c-21.5,32-42.9,64-64.4,96c-1.9,2.9-3.4,6-3.8,9.5c-0.5,3.9,1.8,7.8,7,5.6
				c0.9-0.4,1.8-0.7,2.6-1.2c3.2-2,6.4-3.9,9.5-6.1c6.4-4.6,12.6-9.4,17.6-15.5c3.2-3.9,5.6-8.3,8.5-12.5
				c6.9-9.8,13.9-19.6,20.8-29.4c0.7-1,1.4-1.4,2.7-1.4c4,0.1,8,0,12.4,0c-2.5,3.4-4.7,6.5-6.9,9.6c-9.9,13.9-19.8,27.7-29.6,41.7
				c-2.4,3.4-4.7,7-5.6,11.2c-0.7,3.2,0.7,5.2,4.1,5c1.9-0.1,3.8-0.6,5.5-1.4c7.5-3.4,13.7-8.6,19.7-14.1c4.9-4.5,9.4-9.3,12.7-15.2
				c2.8-5,5.8-9.9,9.2-14.5c5.9-7.7,12.9-14.4,21.5-19.1c2.5-1.4,5.3-2.6,8.2-3.1c8.9-1.7,12.4,4.8,12.8,10.7
				c0.3,4.7-1,9.2-2.4,13.7c-0.2,0.6-0.4,1.2-0.5,1.9c8.7-10.2,17.3-20.7,29.7-26.6c0.1,0.1,0.3,0.3,0.4,0.4
				c-0.2,0.2-0.3,0.5-0.5,0.7c-8.5,6.8-15.2,15.3-21.3,24.2c-9.8,14.1-19.6,28.3-29.4,42.5c-0.2,0.3-0.4,0.6-0.5,0.9
				c0.1,0.2,0.3,0.3,0.4,0.5c4.6-3,9.3-5.9,13.7-9.2c15.8-11.7,29-26.2,40.9-41.8c3.9-5.1,7.5-10.5,11.3-15.7
				c0.4-0.6,0.8-1.3,0.7-1.7c-1.5-2.2-3.3-4.2-4.3-6.6c-1.3-3.1-0.2-6.3,1.1-9.2c3.6-7.7,9.1-13.8,16.2-18.4c0.9-0.6,1.9-1,2.9-1.3
				c3-0.9,5,0.8,4.3,3.8c-0.7,3-1.7,6.1-3.1,8.8c-3.7,6.9-7.7,13.5-11.5,20.3c-0.4,0.7-0.8,1.3-1.2,2.1c1.3,0.8,2.5,1.6,3.8,2.4
				c1.8,1.2,3.5,2.3,5.2,3.6c3.6,2.7,4.6,6.1,3.5,10.5c-2.2,8.1-6.3,15.1-10.7,22.1c-3.9,6.1-7.9,12.1-11.5,18.3
				c-1.3,2.2-2,4.8-2.6,7.3c-0.8,3.1,1,4.8,4.1,3.7c2.5-0.9,5.1-2.1,7.3-3.6c8.5-5.6,15.9-12.4,21.9-20.7c2.6-3.6,4.5-7.8,6.8-11.7
				c6.7-11.2,15.3-20.6,26.4-27.5c3.5-2.2,7.2-3.8,11.4-4.2c6.3-0.6,10.5,4.3,10.8,9.4c0.2,3.5-0.2,6.9-0.3,10.3
				c0.1-0.1,0.4-0.4,0.7-0.7c4.3-5.9,8.5-11.8,12.8-17.7c0.7-0.9,1.3-1.3,2.5-1.3c4,0.1,8,0,12.5,0c-0.6,0.8-0.9,1.4-1.4,2
				C-0.6,49.2-12.5,65.9-24.3,82.6c-2,2.9-3.6,6.2-4.8,9.5c-1.5,4,0.3,6.1,4.6,5.9c1.1-0.1,2.3-0.4,3.3-0.8c5.9-2.1,19.3-12,23.3-17
				c-3.4-6.6-3.5-13.1,1.1-19c3.5-4.6,8.4-6.6,14.2-5.7c1.4,0.2,2-0.4,2.7-1.4C40.8,24.6,61.5-4.8,82.4-34.1
				c9.8-13.7,19.9-27.2,31.4-39.6c6.2-6.6,12.6-13.1,20.6-17.6c2.3-1.3,4.9-2.2,7.5-2.7c3.1-0.6,4.8,0.9,5.4,3.9
				c0.7,3.4-0.1,6.6-1.1,9.8c-2.9,9-7.9,16.8-13.3,24.4c-10.9,15.6-23.4,30-36.7,43.7C81.1,3.3,65.1,17.8,47.8,31
				c-0.6,0.5-1.1,1.2-1.6,1.9C40,42,33.9,51.2,27.7,60.3c-0.3,0.5-0.7,1.4-0.5,1.8c2.8,5,2.8,10.4,2.6,15.8c0,0.4,0,0.7,0.1,1.6
				c3.4-2.1,6.6-3.9,9.6-6c10.6-7.7,19.1-17.4,26.5-28.1c3.2-4.7,6.7-9.2,10-13.8c0.3-0.5,0.9-1,1.4-1.1c4.3-0.1,8.6,0,13.3,0
				c-0.6,0.9-0.9,1.4-1.3,2C77.6,49.2,65.7,65.9,53.9,82.6c-2.1,2.9-3.6,6.3-4.9,9.7c-1.5,3.9,0.3,6.2,4.4,5.6
				c2.9-0.4,5.8-1.5,8.3-3c9.5-5.6,17.8-12.7,24.8-21.2c2.2-2.7,3.8-5.9,5.5-8.9c6.3-11.3,14.4-21,24.9-28.6
				c3.6-2.6,7.6-4.7,12.1-5.3c7.9-1.1,12,4,13.2,9.5c1.6,7.8-0.7,14.8-5.4,21c-5.6,7.3-13.2,11.8-21.7,14.6c-4.9,1.6-10,2.5-15,3.6
				c-1.2,0.3-2.1,0.6-2.4,2C97,84.8,96,88,95.8,91.3c-0.3,4.9,2.5,7.2,7.4,6.9c5.2-0.3,9.8-2.5,14.3-5.1
				c11.2-6.6,20.3-15.6,28.6-25.5c4.5-5.4,8.8-11.1,13.2-16.6c0.6-0.8,1.4-1.4,2.1-2c0.2,0.1,0.4,0.2,0.5,0.4
				c-0.6,1.2-1,2.4-1.7,3.4c-3.9,5.2-7.6,10.5-11.8,15.5c-8.4,10.1-17.7,19.4-29,26.5c-5.1,3.3-10.6,5.8-16.7,6.8
				c-9.4,1.6-16.3-3.6-17-13.2c-0.2-2.8,0-5.6,0-8.4c-1.2,1.1-2.6,2.5-4,3.8c-6.9,6.4-14.2,12.3-22.9,16.1c-2.3,1-4.9,1.6-7.3,1.7
				c-5.4,0.2-9.3-3.5-9.8-8.9c-0.5-5,0.7-9.8,2.9-14.2c1.3-2.6,2.7-5,3.9-7.8c-0.4,0.3-0.8,0.5-1.2,0.8c-5.2,4.3-10.7,8.1-16.9,10.8
				c-1.4,0.6-1.2,1.9-1.3,2.9c-0.7,7.2-2.3,14.2-4.5,21.1c-5.2,16.1-13.5,30.5-23.1,44.2c-7.5,10.8-16,20.9-26,29.5
				c-3.8,3.3-7.9,6.2-12.6,8.2c-3.5,1.4-7,1.8-10.6,0.6c-3.3-1-5-3.4-5.2-6.8c-0.2-4.6,1-8.8,2.5-13c4.9-13.1,11.6-25.3,18.9-37
				c7.9-12.7,16.1-25.1,24.2-37.7c0.4-0.6,0.8-1.2,1.4-2.1c-3.8,2.3-7.1,4.6-10.6,6.4c-2.5,1.3-5.3,2.3-8,2.9
				c-6.4,1.4-11.7-3-11.9-9.6c0-1.2,0-2.4,0-3.8c-2.3,2.1-4.2,4.1-6.4,5.9c-4.1,3.5-8.6,6.3-14,7.5c-8.4,1.9-14.7-2.7-15.2-11.3
				c-0.2-3.5,0.2-7,0.3-10.4c-0.7,0.8-1.7,1.7-2.6,2.7c-5.7,5.9-11.6,11.7-18.7,16c-3,1.8-6.1,3.5-9.9,2.8c-4.7-0.8-7.8-4.4-8.3-9.7
				c-0.7-7.4,1.8-13.9,5.4-20.1c4.9-8.4,11.1-15.9,17.3-23.4c1.5-1.9,3-3.8,4.2-5.9c1.5-2.5,1.2-3.9-1.2-5.5c-2.4-1.6-4.9-3-7.2-4.3
				c-5.2,7.2-10.2,14.4-15.5,21.3c-12.8,16.4-27.1,31.5-44.3,43.3c-4.5,3.1-9.4,5.6-14.1,8.4c-0.9,0.5-1.8,1.2-2.4,2.1
				c-10.8,15.9-21.7,31.7-33.8,46.7c-11.5,14.3-23.7,28-37.9,39.6c-8.1,6.6-16.6,12.6-26.6,16c-4,1.4-8.1,2.3-12.4,1.3
				c-6.2-1.4-10.5-7-10.9-13.6c-0.5-9,2.7-16.9,7.1-24.4c6.3-10.8,15-19.3,24.7-26.9c20.6-16.1,43.7-27.6,68-36.8
				c2.9-1.1,5.8-2.4,8.8-3c4.1-0.8,5.8-3.8,8.1-7.1c-1.8,0.6-3.2,1.4-4.8,1.6c-2.6,0.4-5.2,0.9-7.7,0.4c-5.6-1-9-5.6-9.1-12
				c-0.1-3.1,0.3-6.2,0.5-9.5c-1.7,1.6-3.3,3.2-5,4.7c-6.5,5.9-13.3,11.4-21.4,14.9c-2.6,1.1-5.6,2-8.4,1.9c-5.7-0.2-8.9-3.9-9.2-10
				c-0.1-2.7,0.4-5.4,0.6-8c-2.9,2.4-5.9,5.3-9.3,7.6c-4.7,3.2-9.6,6-14.5,8.9c-1.3,0.8-3,1.1-4.5,1.4c-6.9,1.4-12.2-2.8-12.3-9.9
				c0-2.5,0.4-5,0.5-7.5c-3.2,2.6-6.4,5.6-9.9,8c-4.3,2.9-8.8,5.6-13.4,8.1c-2.6,1.4-5.5,2.1-8.5,1.6c-4.9-0.9-8-4.1-8.2-9.1
				c-0.1-2.9,0.2-5.8,0.4-8.7c-2.1,1.8-4.3,3.8-6.6,5.6c-5.8,4.6-11.8,9-18.9,11.4c-1.4,0.5-3,0.8-4.5,0.9c-5.7,0.2-10-3.8-10.3-9.5
				c-0.1-1.3,0-2.5,0-4.1c-2.1,2-3.9,3.8-5.9,5.5c-4.2,3.7-8.9,6.7-14.4,7.9c-8.5,1.9-14.8-2.7-15.3-11.4c-0.2-3.2,0.4-6.5,0.6-9.7
				c0-0.5,0.1-1,0.2-1.8c-2.7,2.5-5.1,4.8-7.6,7c-6.4,5.5-13.1,10.6-20.9,14c-4.7,2-9.6,2.6-14.6,1.4c-7.8-1.8-12.4-7.4-12.5-15.5
				c-0.1-7.3,2.2-14,6.4-19.9c4.5-6.2,9.4-12.1,14.1-18.1c3.2-4,5.4-8.5,5.8-13.7c0.3-4.2-0.7-8.1-3.1-11.3
				c-5.9,1.3-11.5,2.7-17.3,3.6c-5.5,0.9-11,1.3-16.5,1.8c-1.2,0.1-1.9,0.4-2.7,1.4c-9.8,12.8-20,25.2-31.5,36.5
				c-13.7,13.6-29.4,24-47.9,29.9c-0.5,0.2-0.9,0.3-1.5,0.6c8,3.8,16.2,4.6,24.7,2.7c8.4-1.9,15.6-5.9,22.2-11.7
				c0.6,2.4-0.3,3.7-1.4,4.9c-3.7,3.6-8.1,6.2-12.8,8.2c-10.7,4.5-21.4,4.5-31.9-0.3c-4.3-2-8.1-1.8-12.5-0.7
				c-15.3,3.9-30.8,6.4-46.7,5.9c-4.3-0.1-8.6-1.1-12.8-1.8c-1.2-0.2-2.4-0.9-3.5-1.5c-3.5-2.1-4.3-5.2-2-8.6c3.4-5,8.4-8,13.8-10.2
				c11.3-4.7,22.7-4,33.9,0.3c7.1,2.7,13.9,6,20.8,9.2c1.4,0.7,2.7,0.7,4.2,0.3c12.2-3.1,22.5-9.5,31.5-18.1
				c10.2-9.7,18.9-20.8,27.6-31.8c3.5-4.4,6.9-8.9,10.4-13.3c0.3-0.4,0.7-0.9,1.2-1.6c-2.8-0.4-5.5-0.5-8-1.1
				c-3.8-0.9-7.6-2.1-11.3-3.4c-1.1-0.4-2.2-1.3-3.1-2.2c-2.2-2.1-2.5-5.1-0.5-7.4c1.5-1.8,3.5-3.4,5.5-4.6
				c6.5-3.6,13.6-4.9,20.9-5.6c4.4-0.4,8.9-0.4,13.4-0.4c1.8,0,2.9-0.5,4-1.9c12.6-16.9,25.1-33.9,37.9-50.6
				c8.9-11.6,18.2-22.8,27.4-34.2c0.1-0.1,0.2-0.3,0.4-0.6c-5.3-1.4-10.4-2.9-15.7-4.1c-10.5-2.5-21-5.3-31.6-7.3
				c-11.6-2.2-23.4-3.1-35.2-1.4c-13.2,1.8-24.2,8-33.2,17.7c-7.5,8-13.7,16.8-16.5,27.6c-1.4,5.5-2,11-0.6,16.6
				c2.2,8.7,9.8,13.8,18.8,13c18.4-1.7,32.1-11.4,43.2-25.4c7.2-9.1,12-19.5,15.5-30.5c1-3.2,1.7-4.4,3.7-5.6c0,1.3,0.2,2.4,0,3.4
				c-5.2,18.8-13.9,35.5-29.1,48.2c-8.4,7-17.8,11.9-28.6,13.7c-15.8,2.6-25.5-5.6-29.8-18.4c-4.6-13.7-1.4-26.3,7-37.5
				c11.2-15.1,26.4-23.7,44.7-27c13.6-2.5,27.2-1.7,40.8,0.2c16.3,2.3,31.8,7.4,47.4,12.6c2.2,0.7,3.5,0.3,5.2-1.2
				c6.3-5.7,13.2-10.6,21.5-13.3c2.6-0.8,5.2-1.5,7.9-0.6c2.7,0.8,4,3.1,3.1,5.8c-1.5,4.6-4.9,7.6-8.9,9.8
				c-6.5,3.6-13.5,5.3-20.9,5.2c-0.8,0-1.9,0.7-2.4,1.4c-5.4,7.2-11,14.3-16.1,21.7c-14.8,21.2-29.5,42.6-44.3,63.9
				c-0.1,0.2-0.2,0.4-0.5,0.8c1.1,0.4,2.2,0.7,3.2,1.1c5.4,1.8,10.3,4.4,14.5,8.3c1,0.9,1.7,0.9,2.9,0.4
				C-411,9.4-399.3,1.1-389.6-10c12.8-14.7,25.6-29.5,38.3-44.4c12.4-14.5,25.8-28,41.2-39.3c3.3-2.4,6.9-4.5,10.6-6.5
				c3.6-2,7.6-2.2,11.5-1.4c3.5,0.7,6,4.6,5,8c-0.3,1-1.3,2.1-2.2,2.6c-1,0.6-1.8,0-1.7-1.4c0.4-4-1.8-6.3-5.7-5.6
				c-2.3,0.4-4.7,1.2-6.8,2.3c-7.1,3.8-13,9.1-18.9,14.6c-13.6,12.9-24.7,27.8-35.1,43.4c-6.5,9.8-13.1,19.5-21.1,28.1
				c-12.7,13.7-28.2,23.2-45.4,30.1c-0.5,0.2-1,0.3-1.4,0.5c-0.1,0-0.2,0.2-0.1,0.1c1.4,3.3,3,6.4,4.2,9.7
				c2.8,7.4,2.4,14.8-1.5,21.6c-3.8,6.6-8,12.9-12.2,19.2c-3.4,5.1-7.1,10-9.1,15.9c-0.2,0.5-0.3,1-0.5,1.5
				c-1.6,5.7,0.9,9.1,6.8,9.7c5.1,0.5,9.6-1,13.8-3.4c12.1-7.1,22.5-16,30.3-27.9c6.1-9.4,12.6-18.6,21.3-26
				c5.4-4.6,11-8.7,18.1-10.4c6.9-1.6,12.5,2.3,13,9.4c0.3,3.4-0.2,6.8-0.3,10.2c0.4-0.6,1-1.4,1.6-2.2c4-5.5,8-11.1,12.1-16.6
				c0.4-0.5,1-1.1,1.6-1.1c4.3-0.1,8.5,0,13.2,0c-1.5,2.1-2.8,3.9-4.1,5.7c-10.5,14.7-21.1,29.3-31.4,44.1c-2.4,3.4-4.2,7.1-6,10.8
				c-0.9,1.8-1.4,3.9,0.2,5.6c1.6,1.7,3.7,1.4,5.8,0.9c4.4-1.1,8.1-3.6,11.8-6.2c7.3-5.2,14.2-10.9,19.7-18.1
				c4.1-5.3,7.3-11.2,11.2-16.7c16.5-22.9,33.2-45.8,49.8-68.7c1.5-2.1,3.1-4.2,4.7-6.5c-7.4-1.4-14.6-2.8-21.8-4
				c-8.6-1.5-17.2-3-25.9-4c-8.8-1-17.6-1.6-26.2,1.3c-7,2.4-12.7,6.6-15.4,13.8c-3.5,9.3,2.7,17.2,12.6,16.3
				c1.1-0.1,2.3-0.2,3.4-0.4c3.8-0.6,6.3-2.8,7.7-6.4c0.6-1.5,1.3-2.9,2.3-4.1c0.6-0.7,1.8-0.9,2.7-1.3c0.1,1,0.4,2.1,0.1,3
				c-0.8,2.8-2.7,5-5,6.8c-5.7,4.5-12.1,5.9-19.1,4.1c-9.4-2.4-13.3-11.2-8.5-19.7c4.8-8.4,12.4-13.2,21.6-15.5
				c6.6-1.7,13.3-1.9,20-1c14.4,2,28.7,4.5,43,6.9c3,0.5,5.9,0.9,8.9,1.5c1.2,0.2,1.7-0.1,2.3-1c11.6-15.7,23.2-31.4,34.9-47
				c11.8-15.7,23.8-31.3,37.3-45.7c9.1-9.7,18.8-18.8,30.2-25.8c7.1-4.4,14.6-7.8,23-8.8c0.2,0,0.5-0.2,0.7-0.3
				C-115.5-149.6-112.2-149.6-108.9-149.6z M-182.5,111.4c-0.1-0.1-0.1-0.2-0.2-0.4c-0.5,0.1-1.1,0.2-1.6,0.4
				c-27.6,9-53,22.1-75.5,40.5c-8.8,7.1-16.5,15.2-22.2,25.1c-3.5,6.2-6.1,12.6-5.5,19.9c0.5,7,5.7,12,12.7,11.8
				c5.5-0.1,10.4-2.3,14.9-5.5c9-6.4,16.3-14.4,23.5-22.6c14-16,26.9-32.9,39.6-49.9C-191.9,124.3-187.2,117.8-182.5,111.4z
				 M-210.6-15.2c-0.7-0.1-1-0.1-1.4-0.1c-8.4,0.5-16.8-0.3-25.2-1.4c-1.3-0.2-2.2-0.2-3,1.1c-22,32.2-44.1,64.4-66.1,96.7
				c-1.7,2.5-2.8,5.4-3.8,8.3c-0.9,2.5-1,5.2,1.4,7c2.3,1.8,4.6,0.6,6.8-0.5c7.2-3.7,13.6-8.5,19.6-13.9c3.8-3.4,7.3-7.1,10.4-11.1
				c3.2-4.2,5.7-8.9,8.8-13.2c15.6-21.8,31.3-43.5,47-65.2C-214.4-10.1-212.6-12.5-210.6-15.2z M26.6,84.1c-1.2,0.4-1.8,0.5-2.3,0.7
				c-3.8,1.1-7.6,1.8-11.5,1.2c-1.7-0.3-2.5,0.2-3.3,1.5c-13.8,20.5-27.8,41-41.6,61.5c-5.1,7.6-9.8,15.4-14.3,23.3
				c-1.5,2.7-2.3,5.9-2.9,9c-0.5,2.5,1.1,4,3.6,4.6c2.8,0.7,5.5,0.2,7.8-1.1c4-2.3,8.1-4.6,11.7-7.5c11.6-9.4,20.8-21,28.8-33.5
				c8.7-13.6,16.5-27.7,20.6-43.5C24.5,95.1,25.4,89.8,26.6,84.1z M52.1,24.1c0.1,0.1,0.2,0.2,0.3,0.3c0.5-0.4,1-0.7,1.5-1.1
				C80.5,2.2,104-22,125.1-48.4c7.3-9.1,13.7-18.7,17.9-29.7c1.2-3.1,2-6.5,2.4-9.8c0.4-3.7-1.1-4.7-4.7-4c-4.7,1-8.2,3.9-11.5,7.2
				c-8.2,8-15,17.3-21.4,26.7C93.1-36.6,78.6-15,64,6.5C60,12.4,56.1,18.2,52.1,24.1z M-199.3-19.6c0.1,0.2,0.2,0.4,0.3,0.6
				c5.6-1.5,11.2-2.7,16.7-4.5c11.7-3.9,21.1-11.2,28.4-21.1c9.4-12.7,16.3-26.5,18-42.4c0.3-2.6-0.1-5.3-0.6-7.9
				c-0.5-2.6-2-3.2-4.4-2c-1.5,0.8-3,1.8-4.3,2.9c-6.6,5.7-12,12.5-17,19.6c-10.4,14.9-20.5,30-30.7,45.1
				C-195-26-197.2-22.8-199.3-19.6z M-186,92.2c-0.1,5.2,1.7,6.6,5.8,5c1.6-0.6,3.2-1.4,4.6-2.4c12.8-9.3,22.3-21.2,28.9-35.5
				c2.3-4.9,3.9-10.1,4.1-15.6c0.3-6.4-2.9-8.4-8.3-5.1c-3.9,2.4-7.7,5.3-10.9,8.6c-9.2,9.1-15.6,20.1-20.5,32
				C-184.1,83.6-185.7,88.2-186,92.2z M-19.5,43.9c0-0.9,0.1-1.8,0-2.7c-0.4-3.3-2.3-4.6-5.5-3.6c-1.1,0.3-2.2,0.7-3.1,1.4
				c-3.5,2.7-7.3,5.2-10.4,8.3c-9,9-15.4,19.6-20.1,31.3c-1.8,4.4-3.2,9.2-3.9,13.9c-0.9,5.5,2.1,6.2,5.7,4.8c2-0.9,4.1-1.9,5.8-3.2
				c11.7-8.9,20.7-20.1,27.1-33.4C-21.5,55.4-19.7,49.8-19.5,43.9z M-341.4,44c0-0.6,0-1.3,0-1.9c-0.2-4.2-2.5-5.9-6.4-4.1
				c-2.5,1.1-4.9,2.5-7,4.2c-14.4,12-23.4,27.4-28.8,45.1c-0.8,2.5-0.9,5.3-0.9,7.9c0.1,2.4,1.6,3.4,3.8,2.7c2.3-0.7,4.6-1.6,6.5-3
				c11.8-8.4,20.7-19.4,27.3-32.3C-343.9,56.7-341.7,50.6-341.4,44z M99.4,76.2c0.2,0.1,0.4,0.3,0.6,0.4c5-0.6,9.9-1.7,14.6-3.6
				c9.6-3.8,17.3-9.8,21.3-19.6c2-5,3-10.2,1.3-15.5c-1-3.1-2.7-4.2-5.6-2.7c-2.8,1.3-5.5,3.1-7.7,5.2c-6.8,6.3-11.8,14.1-16.6,21.9
				C104.4,66.8,102,71.6,99.4,76.2z M-555.3,95.2c0-0.2,0-0.4,0.1-0.5c-3.4-1.5-6.7-3.1-10.1-4.5c-10.6-4.5-21.6-6.7-33.1-4.4
				c-5.5,1.1-10.8,3.1-15.1,7c-1.4,1.3-3,2.8-2.3,4.9c0.6,2,2.8,2.5,4.6,2.6c4.9,0.4,9.9,1,14.8,0.6c9.6-0.8,19.1-2.1,28.6-3.3
				C-563.6,97-559.5,96-555.3,95.2z M-87.3-92.3c-10.6,3.7-19,9.4-24.3,19c-1.2,2.2-1.9,4.9-2.3,7.4c-0.4,3,1.9,4.8,4.8,3.8
				c2.4-0.8,4.8-1.9,6.7-3.5C-94.4-72.6-90.6-82-87.3-92.3z M-460.8,8.6c-0.6-0.1-0.8-0.1-1-0.1c-4.7,0.2-9.4,0.2-14.1,0.7
				c-5.3,0.6-10.5,1.7-15.4,4.2c-1.9,0.9-4.2,1.9-4.2,4.3c0,2.5,2.5,3.3,4.5,4.1c5.3,2.1,10.8,2.7,16.4,3c0.6,0,1.4-0.5,1.8-1
				c3.4-4.2,6.6-8.4,10-12.6C-462.2,10.4-461.6,9.6-460.8,8.6z M-430.4,18.1c-0.2-0.3-0.2-0.4-0.3-0.5c-4.9-3.7-10.6-5.8-16.5-7.2
				c-0.5-0.1-1.3,0.4-1.6,0.9c-1.9,2.6-3.8,5.3-5.7,7.9c-1.2,1.7-2.4,3.4-3.8,5.4C-448.4,23.8-439.3,21.6-430.4,18.1z M12.8,82.5
				c4.6,0.7,8.6,0.1,12.5-1.4c0.5-0.2,1.1-1,1.2-1.6c0.2-2.2,0.3-4.3,0.2-6.5c-0.1-2.8-0.4-5.5-2-8.2C20.7,70.8,16.8,76.5,12.8,82.5
				z M-379.7-85.4c2.5-0.4,4.7-0.5,6.8-1c6.1-1.4,11.4-4.2,15.6-9c0.6-0.6,0.6-1.7,0.9-2.5c-0.9-0.2-1.8-0.4-2.6-0.5
				c-0.6,0-1.2,0.2-1.8,0.4c-7.1,2.4-13,6.5-18.4,11.6C-379.3-86.2-379.4-86-379.7-85.4z M-48.6-54.7C-54.8-51.5-58.9-47-61.3-41
				c-0.3,0.7-0.4,1.5-0.5,2.2c-0.1,2,1.2,2.9,2.9,2.1c1-0.5,2-1.3,2.8-2.3C-52.3-43.4-50.4-48.8-48.6-54.7z M4.8,76.3
				c4-5.9,7.8-11.5,11.8-17.3C6.6,57.9,1.7,69.1,4.8,76.3z"/>
		</g>
		<path id="punkt2_5_" class="st3" d="M94.5,18c-3.8,0-6.7-2.8-6.7-6.6c0-3.8,2.9-6.9,6.7-6.9c3.6,0,6.7,3,6.7,6.6
			C101.2,15.1,98.4,18,94.5,18z"/>
		<path id="punkt1_5_" class="st3" d="M-183.9,18c-3.8,0-6.6-2.9-6.7-6.6c0-3.8,3-6.8,6.8-6.8c3.6,0,6.7,3.1,6.7,6.7
			C-177.1,15.1-180.1,18-183.9,18z"/>
	</g>
</g>
</svg>
